<?xml version="1.0" encoding="UTF-8" standalone="no"?>
<svg
   xmlns:dc="http://purl.org/dc/elements/1.1/"
   xmlns:cc="http://creativecommons.org/ns#"
   xmlns:rdf="http://www.w3.org/1999/02/22-rdf-syntax-ns#"
   xmlns:svg="http://www.w3.org/2000/svg"
   xmlns="http://www.w3.org/2000/svg"
   xmlns:xlink="http://www.w3.org/1999/xlink"
   xmlns:sodipodi="http://sodipodi.sourceforge.net/DTD/sodipodi-0.dtd"
   xmlns:inkscape="http://www.inkscape.org/namespaces/inkscape"
   width="300"
   version="1.0"
   sodipodi:version="0.32"
   sodipodi:docname="apple.svg"
   inkscape:version="1.0 (4035a4fb49, 2020-05-01)"
   inkscape:output_extension="org.inkscape.output.svg.inkscape"
   id="svg3895"
   height="300">
  <metadata
     id="metadata3609">
    <rdf:RDF>
      <cc:Work
         rdf:about="">
        <dc:title></dc:title>
        <dc:description />
        <dc:subject>
          <rdf:Bag>
            <rdf:li>unsorted</rdf:li>
          </rdf:Bag>
        </dc:subject>
        <dc:publisher>
          <cc:Agent
             rdf:about="http://www.openclipart.org/">
            <dc:title>Open Clip Art Library, Source: Open Icon Library</dc:title>
          </cc:Agent>
        </dc:publisher>
        <dc:creator>
          <cc:Agent>
            <dc:title />
          </cc:Agent>
        </dc:creator>
        <dc:rights>
          <cc:Agent>
            <dc:title />
          </cc:Agent>
        </dc:rights>
        <dc:date />
        <dc:format>image/svg+xml</dc:format>
        <dc:type
           rdf:resource="http://purl.org/dc/dcmitype/StillImage" />
        <cc:license
           rdf:resource="http://web.resource.org/cc/PublicDomain" />
        <dc:language>en</dc:language>
      </cc:Work>
      <cc:License
         rdf:about="http://web.resource.org/cc/PublicDomain">
        <cc:permits
           rdf:resource="http://web.resource.org/cc/Reproduction" />
        <cc:permits
           rdf:resource="http://web.resource.org/cc/Distribution" />
        <cc:permits
           rdf:resource="http://web.resource.org/cc/DerivativeWorks" />
      </cc:License>
    </rdf:RDF>
  </metadata>
  <defs
     id="defs3897">
    <linearGradient
       id="linearGradient4568">
      <stop
         style="stop-color:#e1e0df;stop-opacity:0.49803922;"
         offset="0"
         id="stop4570" />
      <stop
         style="stop-color:#e1e0df;stop-opacity:0.74901961;"
         offset="0"
         id="stop4572" />
      <stop
         style="stop-color:#e1e0df;stop-opacity:1;"
         offset="0"
         id="stop4574" />
      <stop
         style="stop-color:#e1e0df;stop-opacity:0;"
         offset="1"
         id="stop4576" />
    </linearGradient>
    <linearGradient
       id="linearGradient4510">
      <stop
         style="stop-color:#e1e0df;stop-opacity:0.49803922;"
         offset="0"
         id="stop4514" />
      <stop
         style="stop-color:#697c8b;stop-opacity:1;"
         offset="0"
         id="stop4536" />
      <stop
         style="stop-color:#a5aeb5;stop-opacity:1;"
         offset="0"
         id="stop4602" />
      <stop
         style="stop-color:#e1e0df;stop-opacity:1;"
         offset="0"
         id="stop4534" />
      <stop
         style="stop-color:#e1e0df;stop-opacity:0;"
         offset="1"
         id="stop4516" />
    </linearGradient>
    <linearGradient
       id="linearGradient4502">
      <stop
         style="stop-color:#dde0df;stop-opacity:0.94845361;"
         offset="0"
         id="stop4504" />
      <stop
         style="stop-color:#e1e0df;stop-opacity:0.49803922;"
         offset="0.5"
         id="stop4508" />
      <stop
         style="stop-color:#e1e0df;stop-opacity:0;"
         offset="1"
         id="stop4506" />
    </linearGradient>
    <inkscape:perspective
       sodipodi:type="inkscape:persp3d"
       inkscape:vp_z="744.09448 : 570.18109 : 1"
       inkscape:vp_y="0 : 1000 : 0"
       inkscape:vp_x="0 : 570.18109 : 1"
       inkscape:persp3d-origin="372.04724 : 394.78739 : 1"
       id="perspective3903" />
    <inkscape:perspective
       sodipodi:type="inkscape:persp3d"
       inkscape:vp_z="744.09448 : 570.18109 : 1"
       inkscape:vp_y="0 : 1000 : 0"
       inkscape:vp_x="0 : 570.18109 : 1"
       inkscape:persp3d-origin="372.04724 : 394.78739 : 1"
       id="perspective3969" />
    <linearGradient
       y2="127.3456"
       y1="127.3456"
       xlink:href="#linearGradient4510"
       x2="233.75533"
       x1="31.982189"
       spreadMethod="pad"
       inkscape:collect="always"
       id="linearGradient4500"
       gradientUnits="userSpaceOnUse" />
    <linearGradient
       y2="201.45177"
       y1="219.63451"
       xlink:href="#linearGradient4568"
       x2="190.91884"
       x1="218.19295"
       spreadMethod="pad"
       inkscape:collect="always"
       id="linearGradient4532"
       gradientUnits="userSpaceOnUse" />
    <linearGradient
       y2="30.566313"
       y1="49.928883"
       xlink:href="#linearGradient4510"
       x2="150.51273"
       x1="160.61426"
       spreadMethod="pad"
       inkscape:collect="always"
       id="linearGradient4566"
       gradientUnits="userSpaceOnUse" />
    <linearGradient
       y2="213.57359"
       y1="246.90863"
       xlink:href="#linearGradient4568"
       x2="152.53304"
       x1="165.66502"
       spreadMethod="pad"
       inkscape:collect="always"
       id="linearGradient4584"
       gradientUnits="userSpaceOnUse" />
    <linearGradient
       y2="85.284218"
       y1="213.57359"
       xlink:href="#linearGradient4510"
       x2="51.51778"
       x1="220.21326"
       spreadMethod="pad"
       inkscape:collect="always"
       id="linearGradient4586"
       gradientUnits="userSpaceOnUse" />
    <linearGradient
       y2="85.284218"
       y1="213.57359"
       xlink:href="#linearGradient4510"
       x2="51.51778"
       x1="220.21326"
       spreadMethod="pad"
       inkscape:collect="always"
       id="linearGradient4588"
       gradientUnits="userSpaceOnUse" />
    <linearGradient
       y2="85.284218"
       y1="213.57359"
       xlink:href="#linearGradient4510"
       x2="51.51778"
       x1="220.21326"
       spreadMethod="pad"
       inkscape:collect="always"
       id="linearGradient4590"
       gradientUnits="userSpaceOnUse" />
    <linearGradient
       y2="173.1675"
       y1="247.91878"
       xlink:href="#linearGradient4510"
       x2="140.41121"
       x1="188.89853"
       spreadMethod="pad"
       inkscape:collect="always"
       id="linearGradient4596"
       gradientUnits="userSpaceOnUse"
       gradientTransform="translate(-6.0609153,1.0101525)" />
    <linearGradient
       y2="43.867966"
       y1="55.989796"
       xlink:href="#linearGradient4510"
       x2="139.40105"
       x1="147.48227"
       spreadMethod="pad"
       inkscape:collect="always"
       id="linearGradient4600"
       gradientUnits="userSpaceOnUse"
       gradientTransform="translate(-6.0609153,1.0101525)" />
    <linearGradient
       spreadMethod="pad"
       y2="43.867966"
       x2="139.40105"
       y1="55.989796"
       x1="147.48227"
       gradientTransform="translate(-6.0609153,1.0101525)"
       gradientUnits="userSpaceOnUse"
       id="linearGradient39"
       xlink:href="#linearGradient4510"
       inkscape:collect="always" />
  </defs>
  <sodipodi:namedview
     inkscape:window-maximized="0"
     inkscape:document-rotation="0"
     showguides="true"
     showgrid="false"
     pagecolor="#ffffff"
     objecttolerance="10"
     inkscape:zoom="0.98994949"
     inkscape:window-y="102"
     inkscape:window-x="2894"
     inkscape:window-width="1097"
     inkscape:window-height="674"
     inkscape:pageshadow="2"
     inkscape:pageopacity="0.0"
     inkscape:guide-bbox="true"
     inkscape:document-units="px"
     inkscape:cy="210.91373"
     inkscape:cx="156.93396"
     inkscape:current-layer="layer1"
     id="base"
     guidetolerance="10"
     gridtolerance="10000"
     borderopacity="1.0"
     bordercolor="#666666" />
  <g
     inkscape:label="Layer 1"
     inkscape:groupmode="layer"
     id="layer1">
    <g
       transform="translate(22.223356,15.152288)"
       id="g3645">
      <path
         d="m 226.79135,189.08626 c 1.01223,-3.91699 -0.003,-5.29964 -1.7017,-5.82807 -8.94292,-5.51773 -14.90555,-11.71504 -21.22366,-20.88006 -5.08758,-10.64448 -7.80817,-13.96232 -7.44213,-28.96493 -0.34184,-7.23027 0.55447,-14.46053 3.61518,-21.6908 3.60508,-7.41859 6.90192,-13.662416 13.69382,-17.987951 l 6.50732,-5.784214 c 1.57219,-1.185842 1.57034,-3.54214 0.76689,-5.148905 -5.67233,-5.862803 -10.25672,-11.881022 -20.45677,-17.097014 -4.13233,-2.392532 -10.36931,-4.243995 -18.58715,-4.59379 -5.80155,0.0026 -11.43006,-0.167749 -18.54329,1.146565 -5.69908,0.927917 -11.65378,2.861867 -17.35286,5.784215 l -8.20902,3.914622 c -5.20654,1.274946 -9.93311,0.630018 -14.46071,-0.810746 L 108.21352,64.72566 c -5.28437,-1.945968 -11.470155,-2.990514 -18.798921,-2.892108 -7.23471,-0.02177 -14.404399,0.28156 -20.968031,3.615135 -5.203259,2.50909 -9.936789,5.487901 -14.460712,8.676321 -5.361743,5.001705 -10.450797,10.276098 -14.460711,16.629617 -3.0887,3.989503 -5.27651,10.426015 -7.69776,16.417845 -2.210856,5.99728 -3.222851,10.43641 -4.126441,15.86273 -1.582843,10.49205 -1.393916,16.86307 -1.022527,24.83854 0.780816,13.65361 2.734479,18.62094 4.170301,26.75199 1.728642,6.90614 4.112215,12.50244 6.50732,18.07567 2.433431,6.73659 6.381652,12.7158 10.122498,18.79869 3.291688,6.31908 8.435737,13.2556 13.737676,20.24475 4.581928,5.06255 6.705904,8.89612 15.439378,15.13972 5.857043,3.65864 6.722243,4.37054 9.866867,5.82807 2.894698,0.72047 5.888162,1.34216 10.122498,0.72302 2.75253,-0.58342 5.334895,-0.99667 9.399455,-2.89211 2.89214,-1.20505 5.78429,-2.41008 8.67643,-3.61513 3.2336,-1.44606 6.40298,-2.89211 12.2916,-4.33816 3.8562,-0.50608 7.71238,-0.89189 11.56858,-0.72303 2.42413,-0.0398 6.45926,0.887 12.29159,2.8921 3.62614,1.21235 5.61345,1.33216 13.01465,5.06119 3.14023,1.02016 5.14262,2.79889 10.1225,2.59263 4.78522,-0.65822 9.30541,-2.34835 12.759,-4.33816 3.81487,-2.79226 8.3119,-4.90236 10.8894,-8.93195 3.11283,-2.90263 4.94183,-5.16334 6.71909,-7.39819 l 8.67642,-13.01447 c 2.78102,-3.31151 5.29814,-7.1508 7.39827,-11.82406 2.53419,-5.51897 4.47756,-11.62876 6.33941,-17.82005 z"
         id="path3975"
         sodipodi:nodetypes="cccccccccccccccccccccccccccccccccccccccccc"
         style="fill:#f3f3f3;fill-opacity:1;fill-rule:nonzero;stroke:#939494;stroke-width:1px;stroke-linecap:butt;stroke-linejoin:miter;stroke-opacity:1" />
      <path
         d="m 126.62899,57.623206 c 0.0762,2.889762 1.8952,2.026788 2.91407,2.402779 3.8332,0.434649 5.71331,-0.595501 8.31492,-1.08454 5.03227,-1.442431 6.97283,-2.498404 9.39946,-3.615135 2.77164,-1.648935 5.54327,-2.837865 8.31491,-5.4227 2.61425,-1.900196 4.27306,-3.522401 6.50732,-6.145727 2.95627,-3.037531 3.94612,-4.472477 6.1458,-7.591782 2.44667,-3.566995 3.61518,-5.940873 5.42277,-9.760861 1.21213,-3.069324 2.6743,-6.013639 3.25366,-9.39935 0.63991,-3.054169 1.45078,-6.022868 1.44607,-9.3993468 0.20329,-1.649347 -0.26124,-2.6308683 -0.72304,-3.615134 -1.82628,-1.0776516 -2.76716,-1.0422414 -4.89333,-0.8909374 -2.48906,0.010645 -5.67548,0.3934648 -9.20586,1.9754776 -3.88816,1.7862591 -7.60756,3.685013 -10.48402,6.1457276 -3.07298,1.928072 -5.15629,3.856143 -7.23035,5.784213 -2.51863,2.301578 -4.67999,4.960431 -6.86884,7.591782 -2.49088,2.972549 -4.43468,5.552703 -5.57251,8.186995 -1.53575,2.934711 -2.6025,5.869422 -3.82696,8.804135 -1.29997,3.131921 -2.29561,6.416006 -2.91407,9.888675 -0.35654,2.16742 -0.26403,3.673904 0,6.145729 z"
         id="path4486"
         sodipodi:nodetypes="cccccccccccccccccccc"
         style="fill:#f9f9f9;fill-opacity:1;fill-rule:nonzero;stroke:#939494;stroke-width:1px;stroke-linecap:butt;stroke-linejoin:miter;stroke-opacity:1" />
      <path
         d="m 126.62899,57.623206 c 0.0762,2.889762 1.8952,2.026788 2.91407,2.402779 3.8332,0.434649 5.71331,-0.595501 8.31492,-1.08454 5.03227,-1.442431 6.97283,-2.498404 9.39946,-3.615135 2.77164,-1.648935 5.54327,-2.837865 8.31491,-5.4227 2.61425,-1.900196 4.27306,-3.522401 6.50732,-6.145727 2.95627,-3.037531 3.94612,-4.472477 6.1458,-7.591782 2.44667,-3.566995 3.61518,-5.940873 5.42277,-9.760861 1.21213,-3.069324 2.6743,-6.013639 3.25366,-9.39935 0.63991,-3.054169 1.45078,-6.022868 1.44607,-9.3993468 0.20329,-1.649347 -0.26124,-2.6308683 -0.72304,-3.615134 -1.82628,-1.0776516 -2.76716,-1.0422414 -4.89333,-0.8909374 -2.48906,0.010645 -5.67548,0.3934648 -9.20586,1.9754776 -3.88816,1.7862591 -7.60756,3.685013 -10.48402,6.1457276 -3.07298,1.928072 -5.15629,3.856143 -7.23035,5.784213 -2.51863,2.301578 -4.67999,4.960431 -6.86884,7.591782 -2.49088,2.972549 -4.43468,5.552703 -5.57251,8.186995 -1.53575,2.934711 -2.6025,5.869422 -3.82696,8.804135 -1.29997,3.131921 -2.29561,6.416006 -2.91407,9.888675 -0.35654,2.16742 -0.26403,3.673904 0,6.145729 z"
         id="path4598"
         sodipodi:nodetypes="cccccccccccccccccccc"
         style="fill:url(#linearGradient39);fill-opacity:1;fill-rule:nonzero;stroke:#939494;stroke-width:1px;stroke-linecap:butt;stroke-linejoin:miter;stroke-opacity:1" />
      <path
         d="m 226.79135,189.08626 c 1.01223,-3.91699 -0.003,-5.29964 -1.7017,-5.82807 -8.94292,-5.51773 -14.90555,-11.71504 -21.22366,-20.88006 -5.08758,-10.64448 -7.80817,-13.96232 -7.44213,-28.96493 -0.34184,-7.23027 0.55447,-14.46053 3.61518,-21.6908 3.60508,-7.41859 6.90192,-13.662416 13.69382,-17.987951 l 6.50732,-5.784214 c 1.57219,-1.185842 1.57034,-3.54214 0.76689,-5.148905 -5.67233,-5.862803 -10.25672,-11.881022 -20.45677,-17.097014 -4.13233,-2.392532 -10.36931,-4.243995 -18.58715,-4.59379 -5.80155,0.0026 -11.43006,-0.167749 -18.54329,1.146565 -5.69908,0.927917 -11.65378,2.861867 -17.35286,5.784215 l -8.20902,3.914622 c -5.20654,1.274946 -9.93311,0.630018 -14.46071,-0.810746 L 108.21352,64.72566 c -5.28437,-1.945968 -11.470155,-2.990514 -18.798921,-2.892108 -7.23471,-0.02177 -14.404399,0.28156 -20.968031,3.615135 -5.203259,2.50909 -9.936789,5.487901 -14.460712,8.676321 -5.361743,5.001705 -10.450797,10.276098 -14.460711,16.629617 -3.0887,3.989503 -5.27651,10.426015 -7.69776,16.417845 -2.210856,5.99728 -3.222851,10.43641 -4.126441,15.86273 -1.582843,10.49205 -1.393916,16.86307 -1.022527,24.83854 0.780816,13.65361 2.734479,18.62094 4.170301,26.75199 1.728642,6.90614 4.112215,12.50244 6.50732,18.07567 2.433431,6.73659 6.381652,12.7158 10.122498,18.79869 3.291688,6.31908 8.435737,13.2556 13.737676,20.24475 4.581928,5.06255 6.705904,8.89612 15.439378,15.13972 5.857043,3.65864 6.722243,4.37054 9.866867,5.82807 2.894698,0.72047 5.888162,1.34216 10.122498,0.72302 2.75253,-0.58342 5.334895,-0.99667 9.399455,-2.89211 2.89214,-1.20505 5.78429,-2.41008 8.67643,-3.61513 3.2336,-1.44606 6.40298,-2.89211 12.2916,-4.33816 3.8562,-0.50608 7.71238,-0.89189 11.56858,-0.72303 2.42413,-0.0398 6.45926,0.887 12.29159,2.8921 3.62614,1.21235 5.61345,1.33216 13.01465,5.06119 3.14023,1.02016 5.14262,2.79889 10.1225,2.59263 4.78522,-0.65822 9.30541,-2.34835 12.759,-4.33816 3.81487,-2.79226 8.3119,-4.90236 10.8894,-8.93195 3.11283,-2.90263 4.94183,-5.16334 6.71909,-7.39819 l 8.67642,-13.01447 c 2.78102,-3.31151 5.29814,-7.1508 7.39827,-11.82406 2.53419,-5.51897 4.47756,-11.62876 6.33941,-17.82005 z"
         id="path2408"
         sodipodi:nodetypes="cccccccccccccccccccccccccccccccccccccccccc"
         style="fill:url(#linearGradient4596);fill-opacity:1;fill-rule:nonzero;stroke:#939494;stroke-width:1px;stroke-linecap:butt;stroke-linejoin:miter;stroke-opacity:1" />
      <path
         d="m 126.62899,57.623206 c 0.0762,2.889762 1.8952,2.026788 2.91407,2.402779 3.8332,0.434649 5.71331,-0.595501 8.31492,-1.08454 5.03227,-1.442431 6.97283,-2.498404 9.39946,-3.615135 2.77164,-1.648935 5.54327,-2.837865 8.31491,-5.4227 2.61425,-1.900196 4.27306,-3.522401 6.50732,-6.145727 2.95627,-3.037531 3.94612,-4.472477 6.1458,-7.591782 2.44667,-3.566995 3.61518,-5.940873 5.42277,-9.760861 1.21213,-3.069324 2.6743,-6.013639 3.25366,-9.39935 0.63991,-3.054169 1.45078,-6.022868 1.44607,-9.3993468 0.20329,-1.649347 -0.26124,-2.6308683 -0.72304,-3.615134 -1.82628,-1.0776516 -2.76716,-1.0422414 -4.89333,-0.8909374 -2.48906,0.010645 -5.67548,0.3934648 -9.20586,1.9754776 -3.88816,1.7862591 -7.60756,3.685013 -10.48402,6.1457276 -3.07298,1.928072 -5.15629,3.856143 -7.23035,5.784213 -2.51863,2.301578 -4.67999,4.960431 -6.86884,7.591782 -2.49088,2.972549 -4.43468,5.552703 -5.57251,8.186995 -1.53575,2.934711 -2.6025,5.869422 -3.82696,8.804135 -1.29997,3.131921 -2.29561,6.416006 -2.91407,9.888675 -0.35654,2.16742 -0.26403,3.673904 0,6.145729 z"
         id="path3180"
         sodipodi:nodetypes="cccccccccccccccccccc"
         style="fill:url(#linearGradient4600);fill-opacity:1;fill-rule:nonzero;stroke:#939494;stroke-width:1px;stroke-linecap:butt;stroke-linejoin:miter;stroke-opacity:1" />
    </g>
  </g>
</svg>
